{
  "asset": {
    "generator": "BabylonJS",
    "version": "2.0"
  },
  "buffers": [
    {
      "byteLength": 164800,
      "uri": "scene.bin"
    }
  ],
  "nodes": [
    {
      "name": "chromosome",
      "mesh": 0,
      "rotation": [
        0,
        1,
        0,
        0
      ]
    },
    {
      "name": "default light",
      "rotation": [
        0,
        1,
        0,
        0
      ]
    }
  ],
  "meshes": [
    {
      "primitives": [
        {
          "attributes": {
            "POSITION": 0,
            "NORMAL": 1
          },
          "indices": 2,
          "material": 0
        }
      ]
    }
  ],
  "scenes": [
    {
      "nodes": [
        0,
        1
      ]
    }
  ],
  "scene": 0,
  "bufferViews": [
    {
      "buffer": 0,
      "byteLength": 35880,
      "name": "position - chromosome",
      "byteStride": 12
    },
    {
      "buffer": 0,
      "byteLength": 35880,
      "byteOffset": 35880,
      "name": "normal - chromosome",
      "byteStride": 12
    },
    {
      "buffer": 0,
      "byteLength": 23920,
      "byteOffset": 71760,
      "name": "uv - chromosome",
      "byteStride": 8
    },
    {
      "buffer": 0,
      "byteLength": 69120,
      "byteOffset": 95680,
      "name": "Indices - chromosome"
    }
  ],
  "accessors": [
    {
      "name": "position - chromosome",
      "bufferView": 0,
      "componentType": 5126,
      "count": 2990,
      "type": "VEC3",
      "min": [
        -845.92041015625,
        -2455.57470703125,
        -0.0989060327410698
      ],
      "max": [
        3474.784423828125,
        1031.275390625,
        683.12841796875
      ],
      "byteOffset": 0
    },
    {
      "name": "normal - chromosome",
      "bufferView": 1,
      "componentType": 5126,
      "count": 2990,
      "type": "VEC3",
      "byteOffset": 0
    },
    {
      "name": "indices - chromosome",
      "bufferView": 3,
      "componentType": 5125,
      "count": 17280,
      "type": "SCALAR",
      "byteOffset": 0
    }
  ],
  "materials": [
    {
      "name": "default material",
      "pbrMetallicRoughness": {
        "baseColorFactor": [
          0.5,
          0.5,
          0.5,
          1
        ],
        "metallicFactor": 0,
        "roughnessFactor": 0.3288090062081349
      }
    }
  ]
}